<mxfile host="app.diagrams.net" modified="2021-06-04T18:34:59.203Z" agent="5.0 (Windows NT 10.0; Win64; x64) AppleWebKit/537.36 (KHTML, like Gecko) Chrome/91.0.4472.77 Safari/537.36" etag="YVarvp8vg3nNBYbIPVkZ" version="14.7.4" type="github">
  <diagram id="QXM7okLhdMr8AQxh6Bgx" name="Page-1">
    <mxGraphModel dx="1250" dy="569" grid="1" gridSize="10" guides="1" tooltips="1" connect="1" arrows="1" fold="1" page="1" pageScale="1" pageWidth="827" pageHeight="1169" math="0" shadow="0">
      <root>
        <mxCell id="0" />
        <mxCell id="1" parent="0" />
        <mxCell id="BiMk9_B7EX1rtoU-ykuB-52" value=":Team View" style="shape=umlLifeline;perimeter=lifelinePerimeter;whiteSpace=wrap;html=1;container=1;collapsible=0;recursiveResize=0;outlineConnect=0;" parent="1" vertex="1">
          <mxGeometry x="170" y="100" width="120" height="540" as="geometry" />
        </mxCell>
        <mxCell id="BiMk9_B7EX1rtoU-ykuB-56" value=":Meeting Room Controller" style="shape=umlLifeline;perimeter=lifelinePerimeter;whiteSpace=wrap;html=1;container=1;collapsible=0;recursiveResize=0;outlineConnect=0;" parent="1" vertex="1">
          <mxGeometry x="360" y="100" width="120" height="540" as="geometry" />
        </mxCell>
        <mxCell id="BiMk9_B7EX1rtoU-ykuB-60" value=":Meeting Room&amp;nbsp;&lt;br&gt;View" style="shape=umlLifeline;perimeter=lifelinePerimeter;whiteSpace=wrap;html=1;container=1;collapsible=0;recursiveResize=0;outlineConnect=0;" parent="1" vertex="1">
          <mxGeometry x="560" y="100" width="120" height="540" as="geometry" />
        </mxCell>
        <mxCell id="BiMk9_B7EX1rtoU-ykuB-64" value="" style="shape=umlLifeline;participant=umlActor;perimeter=lifelinePerimeter;whiteSpace=wrap;html=1;container=1;collapsible=0;recursiveResize=0;verticalAlign=top;spacingTop=36;outlineConnect=0;size=70;" parent="1" vertex="1">
          <mxGeometry x="90" y="60" width="40" height="580" as="geometry" />
        </mxCell>
        <mxCell id="BiMk9_B7EX1rtoU-ykuB-65" value="" style="html=1;points=[];perimeter=orthogonalPerimeter;" parent="BiMk9_B7EX1rtoU-ykuB-64" vertex="1">
          <mxGeometry x="15" y="120" width="10" height="440" as="geometry" />
        </mxCell>
        <mxCell id="BiMk9_B7EX1rtoU-ykuB-66" value="User" style="text;html=1;strokeColor=none;fillColor=none;align=center;verticalAlign=middle;whiteSpace=wrap;rounded=0;" parent="BiMk9_B7EX1rtoU-ykuB-64" vertex="1">
          <mxGeometry y="60" width="40" height="20" as="geometry" />
        </mxCell>
        <mxCell id="FJMo4eJdV9Iexavzzjsl-6" value="acknowledge" style="edgeStyle=orthogonalEdgeStyle;rounded=0;orthogonalLoop=1;jettySize=auto;html=1;endArrow=open;endFill=0;dashed=1;" edge="1" parent="1" source="b4w5KYIhBNjsbUTUgyb7-8" target="FJMo4eJdV9Iexavzzjsl-2">
          <mxGeometry relative="1" as="geometry">
            <Array as="points">
              <mxPoint x="520" y="263" />
              <mxPoint x="520" y="263" />
            </Array>
          </mxGeometry>
        </mxCell>
        <mxCell id="FJMo4eJdV9Iexavzzjsl-8" value="return team meeting room" style="edgeStyle=orthogonalEdgeStyle;rounded=0;orthogonalLoop=1;jettySize=auto;html=1;endArrow=open;endFill=0;dashed=1;" edge="1" parent="1" source="b4w5KYIhBNjsbUTUgyb7-8" target="BiMk9_B7EX1rtoU-ykuB-65">
          <mxGeometry relative="1" as="geometry">
            <Array as="points">
              <mxPoint x="490" y="350" />
              <mxPoint x="490" y="350" />
            </Array>
          </mxGeometry>
        </mxCell>
        <mxCell id="b4w5KYIhBNjsbUTUgyb7-8" value="" style="html=1;points=[];perimeter=orthogonalPerimeter;" parent="1" vertex="1">
          <mxGeometry x="615" y="190" width="10" height="280" as="geometry" />
        </mxCell>
        <mxCell id="j7rCs0lyY-aWD0qcUl4s-13" value="select join team &lt;br&gt;meeting room btn" style="edgeStyle=orthogonalEdgeStyle;rounded=0;orthogonalLoop=1;jettySize=auto;html=1;endArrow=open;endFill=0;" parent="1" edge="1" target="FJMo4eJdV9Iexavzzjsl-1">
          <mxGeometry relative="1" as="geometry">
            <Array as="points">
              <mxPoint x="190" y="211" />
              <mxPoint x="190" y="211" />
            </Array>
            <mxPoint x="115" y="211.0000000000001" as="sourcePoint" />
            <mxPoint x="615" y="211.0000000000001" as="targetPoint" />
          </mxGeometry>
        </mxCell>
        <mxCell id="j7rCs0lyY-aWD0qcUl4s-2" value="acknowledge" style="edgeStyle=orthogonalEdgeStyle;rounded=0;orthogonalLoop=1;jettySize=auto;html=1;endArrow=open;endFill=0;dashed=1;" parent="1" source="b4w5KYIhBNjsbUTUgyb7-8" edge="1" target="BiMk9_B7EX1rtoU-ykuB-65">
          <mxGeometry relative="1" as="geometry">
            <mxPoint x="115" y="450.0000000000002" as="targetPoint" />
            <Array as="points">
              <mxPoint x="240" y="460" />
              <mxPoint x="240" y="460" />
            </Array>
            <mxPoint x="224" y="450" as="sourcePoint" />
          </mxGeometry>
        </mxCell>
        <mxCell id="j7rCs0lyY-aWD0qcUl4s-8" value="leave()" style="edgeStyle=orthogonalEdgeStyle;rounded=0;orthogonalLoop=1;jettySize=auto;html=1;endArrow=open;endFill=0;" parent="1" source="j7rCs0lyY-aWD0qcUl4s-21" edge="1">
          <mxGeometry relative="1" as="geometry">
            <mxPoint x="415" y="559.0000000000002" as="targetPoint" />
            <Array as="points">
              <mxPoint x="280" y="559" />
              <mxPoint x="280" y="559" />
            </Array>
          </mxGeometry>
        </mxCell>
        <mxCell id="j7rCs0lyY-aWD0qcUl4s-21" value="" style="html=1;points=[];perimeter=orthogonalPerimeter;" parent="1" vertex="1">
          <mxGeometry x="224" y="528" width="10" height="51" as="geometry" />
        </mxCell>
        <mxCell id="j7rCs0lyY-aWD0qcUl4s-29" value="USER_RS_007" style="edgeStyle=orthogonalEdgeStyle;rounded=0;orthogonalLoop=1;jettySize=auto;html=1;endArrow=open;endFill=0;" parent="1" target="b4w5KYIhBNjsbUTUgyb7-8" edge="1">
          <mxGeometry relative="1" as="geometry">
            <Array as="points">
              <mxPoint x="480" y="430" />
              <mxPoint x="480" y="430" />
            </Array>
            <mxPoint x="115" y="430.0000000000002" as="sourcePoint" />
            <mxPoint x="224" y="430" as="targetPoint" />
          </mxGeometry>
        </mxCell>
        <mxCell id="j7rCs0lyY-aWD0qcUl4s-3" value="select Leave &lt;br&gt;meeting room btn" style="edgeStyle=orthogonalEdgeStyle;rounded=0;orthogonalLoop=1;jettySize=auto;html=1;endArrow=open;endFill=0;" parent="1" target="j7rCs0lyY-aWD0qcUl4s-21" edge="1">
          <mxGeometry relative="1" as="geometry">
            <mxPoint x="115" y="539.0000000000002" as="sourcePoint" />
            <Array as="points">
              <mxPoint x="150" y="539" />
              <mxPoint x="150" y="539" />
            </Array>
          </mxGeometry>
        </mxCell>
        <mxCell id="j7rCs0lyY-aWD0qcUl4s-11" value="acknowledge" style="edgeStyle=orthogonalEdgeStyle;rounded=0;orthogonalLoop=1;jettySize=auto;html=1;endArrow=open;endFill=0;dashed=1;" parent="1" edge="1">
          <mxGeometry relative="1" as="geometry">
            <mxPoint x="415" y="599.0000000000002" as="sourcePoint" />
            <mxPoint x="115" y="599.0000000000002" as="targetPoint" />
            <Array as="points">
              <mxPoint x="260" y="599" />
              <mxPoint x="260" y="599" />
            </Array>
          </mxGeometry>
        </mxCell>
        <mxCell id="j7rCs0lyY-aWD0qcUl4s-4" value="" style="html=1;points=[];perimeter=orthogonalPerimeter;" parent="1" vertex="1">
          <mxGeometry x="415" y="538" width="10" height="72" as="geometry" />
        </mxCell>
        <mxCell id="FJMo4eJdV9Iexavzzjsl-3" value="changeView()" style="edgeStyle=orthogonalEdgeStyle;rounded=0;orthogonalLoop=1;jettySize=auto;html=1;endArrow=open;endFill=0;" edge="1" parent="1" source="FJMo4eJdV9Iexavzzjsl-1" target="FJMo4eJdV9Iexavzzjsl-2">
          <mxGeometry relative="1" as="geometry">
            <Array as="points">
              <mxPoint x="330" y="230" />
              <mxPoint x="330" y="230" />
            </Array>
          </mxGeometry>
        </mxCell>
        <mxCell id="FJMo4eJdV9Iexavzzjsl-1" value="" style="html=1;points=[];perimeter=orthogonalPerimeter;" vertex="1" parent="1">
          <mxGeometry x="224" y="190" width="10" height="130" as="geometry" />
        </mxCell>
        <mxCell id="FJMo4eJdV9Iexavzzjsl-5" value="change view" style="edgeStyle=orthogonalEdgeStyle;rounded=0;orthogonalLoop=1;jettySize=auto;html=1;endArrow=open;endFill=0;" edge="1" parent="1" source="FJMo4eJdV9Iexavzzjsl-2" target="b4w5KYIhBNjsbUTUgyb7-8">
          <mxGeometry relative="1" as="geometry">
            <Array as="points">
              <mxPoint x="520" y="240" />
              <mxPoint x="520" y="240" />
            </Array>
          </mxGeometry>
        </mxCell>
        <mxCell id="FJMo4eJdV9Iexavzzjsl-7" value="acknowledge" style="edgeStyle=orthogonalEdgeStyle;rounded=0;orthogonalLoop=1;jettySize=auto;html=1;endArrow=open;endFill=0;dashed=1;" edge="1" parent="1" source="FJMo4eJdV9Iexavzzjsl-2" target="FJMo4eJdV9Iexavzzjsl-1">
          <mxGeometry relative="1" as="geometry">
            <Array as="points">
              <mxPoint x="320" y="280" />
              <mxPoint x="320" y="280" />
            </Array>
          </mxGeometry>
        </mxCell>
        <mxCell id="FJMo4eJdV9Iexavzzjsl-2" value="" style="html=1;points=[];perimeter=orthogonalPerimeter;" vertex="1" parent="1">
          <mxGeometry x="415" y="200" width="10" height="126" as="geometry" />
        </mxCell>
        <mxCell id="j7rCs0lyY-aWD0qcUl4s-1" value="&lt;font style=&quot;font-size: 10px&quot;&gt;Use meeting room module&lt;br&gt;(USER_RS_007)&lt;br&gt;&lt;/font&gt;" style="shape=umlFrame;whiteSpace=wrap;html=1;width=130;height=30;" parent="1" vertex="1">
          <mxGeometry x="90" y="380" width="550" height="100" as="geometry" />
        </mxCell>
      </root>
    </mxGraphModel>
  </diagram>
</mxfile>
